# xmcd
#
# Track frame offsets:
#	150
#	19012
#	33612
#	52587
#	64975
#	81850
#	101075
#	118550
#	137300
#	152470
#	174087
#	198427
#	213635
#	235160
#	254274
#	276282
#	297147
#	313310
#	333360
#	355096
#
# Disc length: 4991 seconds
#
# Revision: 0
# Processed by: cddbd v1.5.2PL0 Copyright (c) Steve Scherf et al.
# Submitted via: EasyCDDAExtractor 12.0.1.1
#
DISCID=1a137d14
DTITLE=蔡琴
DYEAR=2002
DGENRE=pop
TTITLE0=你的眼神
TTITLE1=再爱我一次
TTITLE2=想你的时候
TTITLE3=被遗忘的时光
TTITLE4=跟我说爱我
TTITLE5=恰似你的温柔
TTITLE6=出塞曲
TTITLE7=明天你是否依然爱我
TTITLE8=大约在冬季
TTITLE9=张三的歌
TTITLE10=把悲伤留给自己
TTITLE11=驿动的心
TTITLE12=缺口
TTITLE13=机遇
TTITLE14=天涯歌女
TTITLE15=我有一段情
TTITLE16=香烟迷蒙了眼睛
TTITLE17=点亮霓虹灯
TTITLE18=爱断情伤
TTITLE19=一生都给你
EXTD=
EXTT0=
EXTT1=
EXTT2=
EXTT3=
EXTT4=
EXTT5=
EXTT6=
EXTT7=
EXTT8=
EXTT9=
EXTT10=
EXTT11=
EXTT12=
EXTT13=
EXTT14=
EXTT15=
EXTT16=
EXTT17=
EXTT18=
EXTT19=
PLAYORDER=
